name analog
datacolumns 19
datarows 53
range 0.6450000000000002 0.6710000000000003
endheader
time	ground_force_vx	ground_force_vy	ground_force_vz	ground_force_px	ground_force_py	ground_force_pz	l_ground_force_vx	l_ground_force_vy	l_ground_force_vz	l_ground_force_px	l_ground_force_py	l_ground_force_pz	ground_torque_x	ground_torque_y	ground_torque_z	l_ground_torque_x	l_ground_torque_y	l_ground_torque_z
0.6450000000000002	-0.0	-0.0	-0.0	0.6883001923561096	34.60832595825195	-399.2957763671875	2.715926170349121	-37.01810836791992	-400.3426818847656	-0.0	-0.0	-0.0	-0.0	-0.0	-0.0	103165.2421875	15819.65625	-2543.37109375
0.6455000000000002	-0.0	-0.0	-0.0	0.0638456046581268	34.404335021972656	-397.4790954589844	2.7929606437683105	-37.00679016113281	-400.7359619140625	-0.0	-0.0	-0.0	-0.0	-0.0	-0.0	103314.1484375	16026.53125	-2322.1640625
0.6460000000000001	-0.0	-0.0	-0.0	0.1025912165641784	34.17482376098633	-397.8329162597656	2.981665134429932	-37.40259552001953	-399.2161254882813	-0.0	-0.0	-0.0	-0.0	-0.0	-0.0	103490.40625	16043.87109375	-2457.9580078125
0.6465000000000002	-0.0	-0.0	-0.0	0.2032378613948822	34.772789001464844	-397.4766540527344	2.8927907943725586	-37.20644378662109	-400.9169921875	-0.0	-0.0	-0.0	-0.0	-0.0	-0.0	103587.0078125	15910.12109375	-2358.580078125
0.6470000000000002	-0.0	-0.0	-0.0	-0.2402389645576477	34.55670547485352	-396.62109375	2.595876216888428	-37.34849548339844	-401.5988464355469	-0.0	-0.0	-0.0	-0.0	-0.0	-0.0	103810.546875	16040.7314453125	-2554.858154296875
0.6475000000000002	-0.0	-0.0	-0.0	-0.1003012657165527	34.68280792236328	-397.180419921875	2.353262186050415	-37.188262939453125	-400.3848571777344	-0.0	-0.0	-0.0	-0.0	-0.0	-0.0	103668.7421875	16097.501953125	-2594.742431640625
0.6480000000000001	-0.0	-0.0	-0.0	0.1914988458156585	34.30447006225586	-397.2756652832031	2.0873589515686035	-37.44839477539063	-400.9902038574219	-0.0	-0.0	-0.0	-0.0	-0.0	-0.0	103551.4765625	16222.34375	-2507.66650390625
0.6485000000000002	-0.0	-0.0	-0.0	-0.2178760170936584	34.92597961425781	-398.4390258789063	2.4602489471435547	-37.39540100097656	-401.2916259765625	-0.0	-0.0	-0.0	-0.0	-0.0	-0.0	103597.1171875	15994.8876953125	-2495.5732421875
0.6490000000000002	-0.0	-0.0	-0.0	-0.2940622568130493	35.10747146606445	-397.889892578125	2.832337617874145	-37.29542541503906	-401.4307556152344	-0.0	-0.0	-0.0	-0.0	-0.0	-0.0	103464.28125	16073.6279296875	-2503.2138671875
0.6495000000000002	-0.0	-0.0	-0.0	-0.5086780190467834	35.24635314941406	-397.2748107910156	2.5008137226104736	-37.06636047363281	-401.5438537597656	-0.0	-0.0	-0.0	-0.0	-0.0	-0.0	103425.2734375	16144.8359375	-2537.08251953125
0.6500000000000001	-0.0	-0.0	-0.0	-0.356842041015625	35.00157928466797	-397.94482421875	2.141079902648926	-37.20737075805664	-400.9679870605469	-0.0	-0.0	-0.0	-0.0	-0.0	-0.0	103525.5859375	16082.4990234375	-2495.687744140625
0.6505000000000002	-0.0	-0.0	-0.0	-0.6110713481903076	35.130767822265625	-396.4270629882813	2.3306314945220947	-37.72954559326172	-402.1275939941406	-0.0	-0.0	-0.0	-0.0	-0.0	-0.0	103498.46875	16379.138671875	-2503.742919921875
0.6510000000000002	-0.0	-0.0	-0.0	-1.0570467710494995	35.53095626831055	-398.0338134765625	2.165515661239624	-37.384273529052734	-401.2230529785156	-0.0	-0.0	-0.0	-0.0	-0.0	-0.0	103745.8515625	16052.4697265625	-2474.134521484375
0.6515000000000002	-0.0	-0.0	-0.0	-0.816437304019928	35.1929817199707	-396.8670043945313	2.0892093181610107	-37.61287689208984	-401.380126953125	-0.0	-0.0	-0.0	-0.0	-0.0	-0.0	103938.4296875	16339.193359375	-2567.3447265625
0.6520000000000001	-0.0	-0.0	-0.0	-0.9193100333213806	35.206512451171875	-395.6153869628906	2.013009548187256	-37.408958435058594	-400.7184753417969	-0.0	-0.0	-0.0	-0.0	-0.0	-0.0	103842.265625	16443.146484375	-2627.6474609375
0.6525000000000002	-0.0	-0.0	-0.0	-0.9813156127929688	35.220176696777344	-396.4586486816406	1.9269405603408811	-37.826271057128906	-403.0757446289063	-0.0	-0.0	-0.0	-0.0	-0.0	-0.0	104110.7421875	16322.6416015625	-2525.551513671875
0.6530000000000002	-0.0	-0.0	-0.0	-1.2214679718017578	35.268184661865234	-394.3119812011719	1.9907034635543823	-37.59850311279297	-403.5215759277344	-0.0	-0.0	-0.0	-0.0	-0.0	-0.0	103852.8671875	16442.625	-2605.50634765625
0.6535000000000002	-0.0	-0.0	-0.0	-0.8719781637191772	35.206512451171875	-394.9645690917969	1.584306240081787	-38.25701141357422	-402.3209533691406	-0.0	-0.0	-0.0	-0.0	-0.0	-0.0	104294.890625	16577.984375	-2729.33056640625
0.6540000000000001	-0.0	-0.0	-0.0	-1.3520293235778809	35.234230041503906	-395.64013671875	1.5967941284179688	-38.14339447021485	-403.22076416015625	-0.0	-0.0	-0.0	-0.0	-0.0	-0.0	104015.6796875	16562.3828125	-2835.330078125
0.6545000000000002	-0.0	-0.0	-0.0	-1.2293683290481567	35.699554443359375	-395.9922180175781	1.5841972827911377	-38.255836486816406	-403.2205505371094	-0.0	-0.0	-0.0	-0.0	-0.0	-0.0	103945.90625	16311.6357421875	-2809.824951171875
0.6550000000000002	-0.0	-0.0	-0.0	-1.7702066898345947	35.69932174682617	-393.4978942871094	1.748868465423584	-37.7890625	-404.0681762695313	-0.0	-0.0	-0.0	-0.0	-0.0	-0.0	103939.6171875	16587.28515625	-2906.954833984375
0.6555000000000002	-0.0	-0.0	-0.0	-1.699807047843933	35.234622955322266	-395.3754577636719	1.647294282913208	-38.09201431274414	-402.17431640625	-0.0	-0.0	-0.0	-0.0	-0.0	-0.0	103861.0546875	16655.982421875	-2894.43408203125
0.6560000000000001	-0.0	-0.0	-0.0	-1.4838712215423584	35.24885177612305	-394.5579223632813	1.634325623512268	-38.33161163330078	-402.6725463867188	-0.0	-0.0	-0.0	-0.0	-0.0	-0.0	103997.46875	16687.833984375	-2822.379150390625
0.6565000000000002	-0.0	-0.0	-0.0	-1.3665565252304075	35.58122634887695	-394.220947265625	1.1661086082458496	-38.48263168334961	-404.0643310546875	-0.0	-0.0	-0.0	-0.0	-0.0	-0.0	104034.8515625	16804.369140625	-2827.029052734375
0.6570000000000003	-0.0	-0.0	-0.0	-1.859166383743286	35.44541549682617	-393.61175537109375	1.3306617736816406	-37.92863082885742	-403.0736389160156	-0.0	-0.0	-0.0	-0.0	-0.0	-0.0	103984.359375	16498.103515625	-2852.111083984375
0.6575000000000002	-0.0	-0.0	-0.0	-1.634452223777771	35.26700210571289	-395.517578125	1.469058394432068	-38.406986236572266	-402.8185729980469	-0.0	-0.0	-0.0	-0.0	-0.0	-0.0	104057.28125	16439.19140625	-2831.14404296875
0.6580000000000001	-0.0	-0.0	-0.0	-2.3194732666015625	35.32724380493164	-394.72998046875	1.2811403274536133	-38.03034973144531	-402.8695373535156	-0.0	-0.0	-0.0	-0.0	-0.0	-0.0	104026.6875	16577.73828125	-2919.279296875
0.6585000000000002	-0.0	-0.0	-0.0	-1.9770811796188357	35.355899810791016	-394.750732421875	1.4949657917022705	-38.531280517578125	-402.5718383789063	-0.0	-0.0	-0.0	-0.0	-0.0	-0.0	103848.5546875	16623.89453125	-2809.26171875
0.6590000000000003	-0.0	-0.0	-0.0	-2.410731315612793	34.77537155151367	-392.7855224609375	1.2815337181091309	-38.23015594482422	-404.3695068359375	-0.0	-0.0	-0.0	-0.0	-0.0	-0.0	103965.390625	16802.177734375	-2868.562744140625
0.6595000000000002	-0.0	-0.0	-0.0	-2.2611093521118164	35.48847961425781	-393.0315246582031	1.7436068058013916	-38.18136596679688	-403.165771484375	-0.0	-0.0	-0.0	-0.0	-0.0	-0.0	104189.6328125	16536.521484375	-2789.3798828125
0.6600000000000001	-0.0	-0.0	-0.0	-2.4699065685272217	35.31158828735352	-393.3212890625	1.179871916770935	-38.26980972290039	-406.0980224609375	-0.0	-0.0	-0.0	-0.0	-0.0	-0.0	104477.3984375	16779.451171875	-2755.783935546875
0.6605000000000002	-0.0	-0.0	-0.0	-2.155775547027588	34.77556610107422	-391.6182861328125	1.255340337753296	-38.45992660522461	-404.5283508300781	-0.0	-0.0	-0.0	-0.0	-0.0	-0.0	104288.8046875	16576.732421875	-2763.154541015625
0.6610000000000003	-0.0	-0.0	-0.0	-2.512681007385254	35.13264465332031	-393.03076171875	1.180145025253296	-38.46011734008789	-405.2591552734375	-0.0	-0.0	-0.0	-0.0	-0.0	-0.0	104411.40625	16787.806640625	-2852.178955078125
0.6615000000000002	-0.0	-0.0	-0.0	-2.810144424438477	34.93914794921875	-392.3829345703125	1.0915876626968384	-38.23578643798828	-405.607666015625	-0.0	-0.0	-0.0	-0.0	-0.0	-0.0	104485.3984375	16916.984375	-2929.583251953125
0.6620000000000001	-0.0	-0.0	-0.0	-2.497894287109375	35.14719009399414	-392.1478576660156	1.139656901359558	-38.55600738525391	-404.3426818847656	-0.0	-0.0	-0.0	-0.0	-0.0	-0.0	104827.6328125	16744.80859375	-2849.77734375
0.6625000000000002	-0.0	-0.0	-0.0	-2.824789762496948	34.98337173461914	-391.7926025390625	1.3033859729766846	-38.69847869873047	-404.9351196289063	-0.0	-0.0	-0.0	-0.0	-0.0	-0.0	104830.609375	16937.46875	-2847.529541015625
0.6630000000000003	-0.0	-0.0	-0.0	-2.6913657188415527	35.072269439697266	-393.0296936035156	1.289517879486084	-38.69855499267578	-406.6536865234375	-0.0	-0.0	-0.0	-0.0	-0.0	-0.0	104664.453125	16637.3359375	-2877.152099609375
0.6635000000000002	-0.0	-0.0	-0.0	-2.588578224182129	35.22161102294922	-393.61614990234375	1.3306617736816406	-38.74578857421875	-405.256591796875	-0.0	-0.0	-0.0	-0.0	-0.0	-0.0	104656.0078125	16617.22265625	-2856.64306640625
0.6640000000000001	-0.0	-0.0	-0.0	-3.224925994873047	35.312625885009766	-392.8490295410156	1.1809117794036863	-38.53580474853516	-404.7532043457031	-0.0	-0.0	-0.0	-0.0	-0.0	-0.0	104481.2421875	17032.716796875	-2941.061767578125
0.6645000000000002	-0.0	-0.0	-0.0	-2.987419366836548	35.828163146972656	-392.9685668945313	1.0645294189453125	-38.494407653808594	-404.9063720703125	-0.0	-0.0	-0.0	-0.0	-0.0	-0.0	104378.0859375	16789.845703125	-2802.091064453125
0.6650000000000003	-0.0	-0.0	-0.0	-3.0305638313293457	35.78456115722656	-393.6847534179688	1.3635185956954956	-38.22938919067383	-404.9803466796875	-0.0	-0.0	-0.0	-0.0	-0.0	-0.0	104245.6328125	16717.48828125	-2867.4755859375
0.6655000000000002	-0.0	-0.0	-0.0	-3.9345273971557617	35.77202224731445	-394.3802490234375	1.1672804355621338	-38.31763458251953	-402.388427734375	-0.0	-0.0	-0.0	-0.0	-0.0	-0.0	103984.4921875	16785.595703125	-2811.406982421875
0.6660000000000001	-0.0	-0.0	-0.0	-3.657630920410156	35.79956817626953	-396.3765563964844	1.2419509887695312	-38.30352783203125	-401.87353515625	-0.0	-0.0	-0.0	-0.0	-0.0	-0.0	103848.15625	16740.587890625	-2792.549560546875
0.6665000000000002	-0.0	-0.0	-0.0	-3.4984705448150635	35.83418655395508	-394.0410461425781	1.018291473388672	-38.27523040771485	-402.3898315429688	-0.0	-0.0	-0.0	-0.0	-0.0	-0.0	103992.5078125	16914.587890625	-2802.151611328125
0.6670000000000003	-0.0	-0.0	-0.0	-3.2427244186401367	36.08647918701172	-394.7935180664063	1.1105371713638306	-37.96415328979492	-402.6148376464844	-0.0	-0.0	-0.0	-0.0	-0.0	-0.0	103830.3125	16772.92578125	-2906.4091796875
0.6675000000000002	-0.0	-0.0	-0.0	-3.3210325241088867	36.28709411621094	-394.5821228027344	0.9157023429870604	-38.16920471191406	-402.1548767089844	-0.0	-0.0	-0.0	-0.0	-0.0	-0.0	103775.5078125	16662.3984375	-2787.901611328125
0.6680000000000001	-0.0	-0.0	-0.0	-3.56842041015625	35.97732162475586	-394.3580627441406	1.0645294189453125	-38.27187728881836	-402.9876403808594	-0.0	-0.0	-0.0	-0.0	-0.0	-0.0	104026.5546875	16740.30859375	-2886.375732421875
0.6685000000000002	-0.0	-0.0	-0.0	-3.510746479034424	36.17118835449219	-394.2523193359375	1.0955266952514648	-38.2597885131836	-403.0429992675781	-0.0	-0.0	-0.0	-0.0	-0.0	-0.0	103585.078125	16624.2890625	-2916.014892578125
0.6690000000000003	-0.0	-0.0	-0.0	-3.7151947021484375	36.35948181152344	-394.2740783691406	0.7531344890594482	-38.212646484375	-401.8663635253906	-0.0	-0.0	-0.0	-0.0	-0.0	-0.0	103877.9453125	16770.291015625	-2985.866943359375
0.6695000000000002	-0.0	-0.0	-0.0	-3.526911497116089	36.15517044067383	-394.5649719238281	0.6646538972854614	-38.36060333251953	-401.52435302734375	-0.0	-0.0	-0.0	-0.0	-0.0	-0.0	103831.7734375	16863.69921875	-2827.354736328125
0.6700000000000002	-0.0	-0.0	-0.0	-3.944042682647705	35.70001220703125	-393.3792419433594	0.6209754943847656	-38.31705474853516	-402.4567260742188	-0.0	-0.0	-0.0	-0.0	-0.0	-0.0	103950.9921875	16870.984375	-3089.78759765625
0.6705000000000002	-0.0	-0.0	-0.0	-3.8772051334381104	35.88754653930664	-393.0171203613281	0.6796844005584717	-38.53812789916992	-402.8029174804688	-0.0	-0.0	-0.0	-0.0	-0.0	-0.0	103588.515625	16699.734375	-2995.5576171875
0.6710000000000003	-0.0	-0.0	-0.0	-4.023201942443848	35.9604377746582	-394.50201416015625	0.295640230178833	-38.44931411743164	-402.7467651367188	-0.0	-0.0	-0.0	-0.0	-0.0	-0.0	103649.7578125	16610.41015625	-3025.420654296875
